<svg width="220" height="48" viewBox="0 0 220 48" fill="none" xmlns="http://www.w3.org/2000/svg">
<path d="M28.6577 17.2631H43.5L25.3356 2L7.11756 17.2631L21.692 16.9999" stroke="#6C60FE" stroke-width="2"/>
<path d="M39.749 17.3686L39.8542 30.9791L39.8562 31.2369" stroke="#6C60FE" stroke-width="2"/>
<path d="M10.9756 17.3158L10.922 30.8825" stroke="#6C60FE" stroke-width="2"/>
<path d="M38.356 47L44.0358 41.1053C45.1431 40.1404 47.4972 37.6632 48.0544 35.4738C48.751 32.7369 49.0189 29.2106 48.9118 26.6317C48.8046 24.0528 48.6438 22.5265 47.2507 22.5265C45.8576 22.5265 45.1074 22.1054 44.5716 23.4212C44.1429 24.4738 44.0358 29.4387 44.0358 31.7896C44.0893 32.1931 43.9393 33.2843 42.9105 34.4211C41.8817 35.558 38.0524 39.5614 36.2663 41.4211" stroke="#1E1D85" stroke-width="2"/>
<path d="M43.0711 34.0522C43.1782 33.8943 43.2639 33.3575 42.7496 32.4733C42.1066 31.368 41.5707 30.9996 40.767 30.8943C39.9633 30.7891 39.3739 30.947 38.838 31.368C38.4094 31.7049 35.9803 34.2452 34.8194 35.4733L34.1764 36.1048C33.712 36.1575 32.5046 36.3575 31.3901 36.7364C29.9969 37.2101 28.8181 37.8417 27.6929 39.2101C26.5677 40.5785 25.9247 42.2627 25.6032 43.3679C25.346 44.2521 25.2817 46.0872 25.2817 46.8942" stroke="#1E1D85" stroke-width="2"/>
<path d="M25.335 46.8948V43.6317C24.9956 43.158 23.9043 41.7843 22.254 40.0791C20.6036 38.3738 17.4405 36.7194 16.0652 36.1054L11.35 31.3686C10.9392 31.0704 10.1444 30.7897 9.3942 30.9739C8.64405 31.1581 8.12254 31.8715 7.49203 32.6844C7.3721 32.839 6.99948 33.6514 8.24218 35.3159C8.7137 35.9475 12.4752 39.544 14.297 41.2633" stroke="#1E1D85" stroke-width="2"/>
<path d="M12.3154 46.8414L5.99271 40.7888C5.08181 39.7888 3.09926 37.3257 2.45627 35.473C1.65253 33.1573 1.38462 26.631 1.54537 25.3678C1.70612 24.1047 2.24194 22.9994 3.20642 22.7363C4.17091 22.4731 5.60727 22.5811 5.99271 23.2626C6.37815 23.9441 6.52853 26.7099 6.52853 27.8941C6.52853 28.829 6.52853 30.7099 7.17152 32.131L7.51981 34.1046" stroke="#1E1D85" stroke-width="2"/>
<path d="M61.4775 16.5319C66.7725 16.5218 70.0044 19.6317 70.0044 24.7438C70.0044 29.8254 66.7725 32.915 61.4775 32.915H56.7109V16.5421L61.4775 16.5319ZM61.4978 29.6323C64.7195 29.6323 66.681 27.7826 66.681 24.7336C66.681 21.6643 64.7094 19.7943 61.4673 19.7943H59.9936V29.6323H61.4978Z" fill="#1E1D85"/>
<path d="M84.68 32.915H80.6554L75.4417 25.1706V32.915H72.1488L72.1387 16.5319H77.4845C80.5436 16.5319 83.0539 18.8898 83.0539 21.8371C83.0539 23.9409 81.7835 25.7804 80.0253 26.4004L84.68 32.915ZM75.4315 19.7943V23.9104L77.5455 23.9206C78.6634 23.9307 79.6594 23.0262 79.6594 21.8574C79.6594 20.6887 78.6533 19.7943 77.5455 19.7943H75.4315Z" fill="#1E1D85"/>
<path d="M96.1238 19.774H89.538V22.9754H95.1888V26.2581H89.538V29.6424H96.1238V32.915H86.2452V16.5319H96.1238V19.774Z" fill="#1E1D85"/>
<path d="M109.529 32.915L108.492 30.6283H101.937L100.89 32.915H97.3332L105.159 16.1254H105.26L113.096 32.915H109.529ZM103.218 27.8232H107.212L105.22 23.4429L103.218 27.8232Z" fill="#1E1D85"/>
<path d="M130.607 16.1254H130.79V32.915H127.498V25.7804L122.782 32.6406H122.761L118.036 25.7804V32.915H114.743V16.1254H114.926L122.772 26.9492L130.607 16.1254Z" fill="#1E1D85"/>
<path d="M138.555 33.2402C135.872 33.2402 133.89 32.1222 132.793 30.0896L135.425 28.2399C136.146 29.3985 137.193 29.927 138.606 29.927C140.151 29.927 141.187 29.2969 141.187 28.4228C141.187 27.2236 139.226 26.2784 137.508 25.4247C135.669 24.51 133.646 23.5039 133.646 20.8919C133.646 18.0564 136.045 16.1864 139.053 16.1864C141.289 16.1864 143.139 17.1112 143.881 19.093L141.452 20.7903C140.964 19.8146 140.019 19.4183 139.104 19.4183C137.874 19.4183 136.959 20.1297 136.959 20.9732C136.959 21.9489 138.199 22.2843 140.08 23.1685C142.793 24.449 144.501 25.8312 144.501 28.3517C144.501 31.3397 142.061 33.2402 138.555 33.2402Z" fill="#1E1D85"/>
<path d="M157.258 18.9914H150.072V23.1888H156.272V25.7499H150.072V30.2827H157.258V32.8438H147.501V16.4608H157.258V18.9914Z" fill="#6C60FE"/>
<path d="M164.667 33.1182C161.973 33.1182 159.931 31.858 158.996 29.9677L161.028 28.5143C161.76 29.7949 163.122 30.5266 164.697 30.5266C166.537 30.5266 167.929 29.6424 167.929 28.3924C167.929 26.878 165.774 25.9634 163.864 25.1401C161.943 24.2864 159.809 23.2904 159.809 20.7192C159.809 18.0361 162.136 16.166 165.083 16.166C167.421 16.166 169.169 17.2942 169.84 19.093L167.929 20.4143C167.421 19.3065 166.293 18.6865 165.104 18.6865C163.599 18.6865 162.4 19.6215 162.4 20.7801C162.4 22.0607 163.915 22.518 165.907 23.3717C168.498 24.51 170.51 25.7601 170.51 28.3415C170.51 31.2482 167.99 33.1182 164.667 33.1182Z" fill="#6C60FE"/>
<path d="M182.991 16.4608V19.0117H178.6V32.8438H176.019V19.0117H171.628V16.4608H182.991Z" fill="#6C60FE"/>
<path d="M194.445 32.8438L193.327 30.3539H185.572L184.454 32.8438H181.67L189.373 16.1254H189.526L197.229 32.8438H194.445ZM186.568 28.1484H192.331L189.455 21.7456L186.568 28.1484Z" fill="#6C60FE"/>
<path d="M207.281 16.4608V19.0117H202.89V32.8438H200.309V19.0117H195.918V16.4608H207.281Z" fill="#6C60FE"/>
<path d="M219.09 18.9914H211.905V23.1888H218.105V25.7499H211.905V30.2827H219.09V32.8438H209.334V16.4608H219.09V18.9914Z" fill="#6C60FE"/>
<path d="M31.3167 23.7111C32.9787 25.2727 33.0357 27.7607 31.4901 29.3834L25.2627 35.2322L19.0354 29.3834C17.4898 27.7607 17.5476 25.2688 19.2087 23.7111C20.8717 22.1516 23.5332 22.0991 25.2635 23.5535C26.9888 22.1012 29.6549 22.1494 31.3167 23.7111ZM20.2474 24.6851C19.1532 25.7112 19.0983 27.3545 20.1067 28.4399L25.2627 33.2826L30.4188 28.4399C31.4276 27.3541 31.3729 25.7139 30.277 24.6841C29.1846 23.6576 27.4264 23.6082 26.2721 24.5558L23.1853 27.4507L22.1466 26.4766L24.2213 24.5297L24.1612 24.4822C23.0046 23.6109 21.3136 23.6853 20.2474 24.6851Z" fill="#FD3358"/>
<path d="M35.2002 6.24356V9.76922L37.7925 11.3362V6.24356H35.2002Z" stroke="#6C60FE" stroke-width="1.5"/>
</svg>
